<?xml version="1.0" encoding="UTF-8"?>
<svg version="1.1" xmlns="http://www.w3.org/2000/svg" width="512" height="512">
<path d="M0 0 C0.70487549 0.00054382 1.40975098 0.00108765 2.13598633 0.00164795 C19.44696718 0.06293357 38.47158969 2.35657791 53.58496094 11.65820312 C61.59673338 16.40767668 69.61322215 16.05749752 78.625 16 C109.10985552 15.94739455 133.56603208 24.19084566 156.0625 45.5 C171.76360951 61.55593684 181.54254128 84.32337889 181.66113281 106.81396484 C181.66609772 107.53350845 181.67106262 108.25305206 181.67617798 108.99440002 C181.69069958 111.35825582 181.69758404 113.72204456 181.703125 116.0859375 C181.70595238 116.89789204 181.70877975 117.70984657 181.71169281 118.54640579 C181.72664334 122.84148734 181.73589947 127.13653565 181.74023438 131.43164062 C181.74571938 135.85205019 181.7697598 140.2721518 181.79820633 144.69246483 C181.81688998 148.106973 181.8220413 151.52140772 181.82357025 154.93596268 C181.82658332 156.56494458 181.83456604 158.19392561 181.84775543 159.8228569 C181.92959093 170.70443337 181.63329456 179.4583818 174.5 188.375 C168.58293152 193.94400563 160.94868092 196.5339206 152.875 196.5625 C151.76125 196.500625 150.6475 196.43875 149.5 196.375 C149.83 197.365 150.16 198.355 150.5 199.375 C152.28132638 222.4192208 148.39507069 244.25484101 133.23828125 262.3828125 C132.66464844 263.04023438 132.09101563 263.69765625 131.5 264.375 C130.62831018 265.41471157 129.75889891 266.45633625 128.89135742 267.49951172 C128.10220947 268.44842285 127.31306152 269.39733398 126.5 270.375 C127.37839035 270.38086624 128.2567807 270.38673248 129.16178894 270.39277649 C137.44559984 270.4507146 145.72914142 270.52279777 154.01269054 270.61071491 C158.27121775 270.65541517 162.52964937 270.69467195 166.78833008 270.72143555 C170.89931576 270.74747213 175.00993352 270.78787676 179.1206913 270.83818626 C180.687894 270.85485264 182.25516033 270.86636836 183.82243919 270.87261391 C186.0202821 270.88225781 188.21718429 270.91031854 190.41479492 270.94262695 C191.66499924 270.95373001 192.91520355 270.96483307 194.20329285 270.97627258 C199.4467269 271.61045112 202.56033123 274.20135019 206.26464844 277.78564453 C207.3103299 278.79282028 207.3103299 278.79282028 208.37713623 279.82034302 C209.48209442 280.90314041 209.48209442 280.90314041 210.609375 282.0078125 C211.37679016 282.75908417 212.14420532 283.51035583 212.93487549 284.28439331 C214.55151157 285.8734303 216.16511752 287.46555518 217.77587891 289.06054688 C219.42357839 290.68515841 221.08018557 292.30078553 222.74560547 293.90722656 C225.15761214 296.23385669 227.54197158 298.58590546 229.921875 300.9453125 C230.66661072 301.65503204 231.41134644 302.36475159 232.1786499 303.09597778 C236.37187342 307.32504451 238.34459507 310.35243626 238.72467041 316.36080933 C238.34469349 319.76733703 236.70408858 321.85604162 234.5 324.375 C230.9337571 326.15812145 227.3772611 326.11174204 223.5 325.375 C220.36033126 323.49241333 218.04938035 320.97829138 215.5 318.375 C213.75011444 316.6209815 211.99876811 314.86841933 210.24609375 313.1171875 C209.35462646 312.22628418 208.46315918 311.33538086 207.54467773 310.41748047 C206.53256226 309.40645264 206.53256226 309.40645264 205.5 308.375 C205.49780016 309.88963176 205.49780016 309.88963176 205.49555588 311.43486214 C205.45897156 335.99697744 205.39953596 360.55895628 205.31609726 385.12095833 C205.27627682 396.99893548 205.24389957 408.87684609 205.22900391 420.75488281 C205.216003 431.10699035 205.1890782 441.45895167 205.14538693 451.81097686 C205.1227371 457.29303541 205.10709144 462.77491336 205.10811615 468.25702286 C205.10886067 473.41660614 205.09099327 478.57578967 205.05883217 483.73526955 C205.05031122 485.62909816 205.04859809 487.52297149 205.05419731 489.41681099 C205.06082573 492.00320591 205.04294508 494.58832464 205.01898193 497.17459106 C205.03062256 498.29815071 205.03062256 498.29815071 205.04249835 499.44440854 C204.95904564 504.53409272 203.71534977 507.45681103 200.5 511.375 C197.65759076 512.79620462 195.26327169 512.50583576 192.08339214 512.51201439 C191.41398646 512.51466622 190.74458077 512.51731804 190.05489007 512.52005023 C187.78972788 512.52776961 185.52461967 512.5283034 183.25944519 512.52890015 C181.62786053 512.53291302 179.99627687 512.53735095 178.36469442 512.5421797 C173.86384367 512.55417037 169.36300366 512.5597994 164.86214006 512.56436086 C160.01471968 512.57030744 155.16731221 512.58191954 150.31990051 512.59265137 C138.60537493 512.6171957 126.89084508 512.63180479 115.17630169 512.64471143 C111.86958593 512.64842166 108.56287059 512.65239502 105.25615525 512.6564641 C84.73705192 512.68169711 64.21794794 512.70375771 43.69883251 512.71619225 C38.94399704 512.71912211 34.18916159 512.72208375 29.43432617 512.72509766 C28.25248528 512.72584371 27.07064438 512.72658976 25.85299013 512.72735842 C6.69613188 512.74001946 -12.46063371 512.77325153 -31.61744861 512.81489949 C-51.26958236 512.85727536 -70.92166861 512.88088218 -90.57384795 512.88611281 C-101.61426013 512.8895317 -112.65452747 512.90134312 -123.69489479 512.93421555 C-133.0948942 512.96215743 -142.4947191 512.9732412 -151.89475683 512.96202008 C-156.69338604 512.95681852 -161.49164945 512.95981697 -166.29022598 512.98448563 C-170.68043464 513.00686722 -175.07001238 513.00632536 -179.46023127 512.98728175 C-181.05110643 512.98446609 -182.64202337 512.99016663 -184.23283098 513.00509469 C-186.39128466 513.02411618 -188.5474688 513.01247383 -190.70586872 512.99303246 C-191.90583998 512.99438898 -193.10581124 512.99574551 -194.34214526 512.99714315 C-198.41586631 512.19456106 -199.89353194 510.52828277 -202.5 507.375 C-204.0422288 504.29054241 -203.65386501 501.04130668 -203.65821838 497.65560913 C-203.66562535 496.44635613 -203.66562535 496.44635613 -203.67318195 495.21267378 C-203.68860749 492.49643962 -203.69693121 489.78022919 -203.70532227 487.06396484 C-203.71489682 485.12280568 -203.72490665 483.18164862 -203.73532104 481.24049377 C-203.76242199 475.95773625 -203.7834034 470.67496975 -203.80332303 465.39218092 C-203.82515065 459.87615276 -203.85255507 454.36015245 -203.87937927 448.84414673 C-203.92934986 438.3929766 -203.97427246 427.94179105 -204.01740164 417.49059069 C-204.06673675 405.59474258 -204.12166867 393.69892241 -204.17708123 381.8031013 C-204.29096829 357.32709358 -204.39779264 332.85105908 -204.5 308.375 C-204.97421387 308.85445068 -205.44842773 309.33390137 -205.93701172 309.82788086 C-208.08040335 311.99201838 -210.2276439 314.15229647 -212.375 316.3125 C-213.49455078 317.44461914 -213.49455078 317.44461914 -214.63671875 318.59960938 C-215.35214844 319.31826172 -216.06757813 320.03691406 -216.8046875 320.77734375 C-217.46452637 321.44241943 -218.12436523 322.10749512 -218.80419922 322.79272461 C-222.04507994 325.81664456 -224.96643625 325.76189091 -229.23828125 325.734375 C-232.82520929 325.16443134 -234.36838894 323.17273951 -236.5 320.375 C-238.13023814 317.11452371 -237.9673535 314.99698965 -237.5 311.375 C-236.1786499 309.51121521 -236.1786499 309.51121521 -234.42871094 307.60327148 C-233.4724884 306.55573196 -233.4724884 306.55573196 -232.49694824 305.48703003 C-229.41889932 302.23159676 -226.30584138 299.01844111 -223.140625 295.84765625 C-222.46956726 295.17327011 -221.79850952 294.49888397 -221.1071167 293.80406189 C-219.70341095 292.39533721 -218.29838829 290.98792358 -216.89208984 289.58178711 C-214.73636808 287.4238541 -212.58880168 285.25801196 -210.44140625 283.09179688 C-209.07080138 281.71826199 -207.69972461 280.3451978 -206.328125 278.97265625 C-205.68748108 278.32482681 -205.04683716 277.67699738 -204.38677979 277.00953674 C-203.49004547 276.11741737 -203.49004547 276.11741737 -202.57519531 275.20727539 C-201.79079071 274.42073326 -201.79079071 274.42073326 -200.99053955 273.61830139 C-197.62202438 270.80852717 -193.81600002 271.22139292 -189.6418457 271.16967773 C-188.94890411 271.15977814 -188.25596252 271.14987854 -187.54202271 271.13967896 C-185.25331022 271.1081104 -182.96457699 271.08332497 -180.67578125 271.05859375 C-179.08822594 271.03802021 -177.50067606 271.01702363 -175.91313171 270.99562073 C-171.73583372 270.94044139 -167.55848663 270.89101388 -163.38110352 270.84277344 C-159.11795688 270.7925282 -154.8548815 270.73685791 -150.59179688 270.68164062 C-142.22792484 270.57410966 -133.86399317 270.47265347 -125.5 270.375 C-126.26292862 269.4840564 -127.02585724 268.59311279 -127.81190491 267.6751709 C-128.8188166 266.4938373 -129.82560002 265.31239436 -130.83227539 264.13085938 C-131.33443825 263.54512146 -131.8366011 262.95938354 -132.35398102 262.355896 C-143.13617859 249.67901327 -149.67442241 233.39908472 -149.59765625 216.6640625 C-149.59282227 214.79814453 -149.59282227 214.79814453 -149.58789062 212.89453125 C-149.57532227 210.96673828 -149.57532227 210.96673828 -149.5625 209 C-149.55798828 207.69160156 -149.55347656 206.38320312 -149.54882812 205.03515625 C-149.53707594 201.81505719 -149.52064543 198.5950523 -149.5 195.375 C-150.3031665 194.99263184 -151.10633301 194.61026367 -151.93383789 194.21630859 C-163.45878025 188.61561394 -172.85517255 181.88234316 -177.56384277 169.60002136 C-180.26103512 161.44792835 -181.08951912 154.16887697 -181.03125 145.61328125 C-181.0350769 144.342603 -181.03890381 143.07192474 -181.04284668 141.76274109 C-181.04555149 139.09068663 -181.04036177 136.42012838 -181.02148438 133.74829102 C-180.99880954 130.38077475 -181.01214249 127.01453096 -181.03525734 123.64705944 C-181.14743217 104.36813645 -180.1164721 86.93451603 -171.5 69.375 C-171.04753906 68.44300781 -170.59507812 67.51101562 -170.12890625 66.55078125 C-158.51055915 43.97529379 -137.70902036 27.7370666 -113.75 20 C-103.5187522 16.94205722 -93.4700858 16.22751813 -82.86279297 16.25097656 C-68.86666212 16.27597439 -57.59084937 15.74871348 -45.36132812 8.37207031 C-41.96249976 6.55139678 -38.32251113 5.54244854 -34.625 4.5 C-33.64345947 4.21431152 -33.64345947 4.21431152 -32.64208984 3.92285156 C-30.60363042 3.35737975 -28.56057088 2.85369504 -26.5 2.375 C-25.7049707 2.18953613 -24.90994141 2.00407227 -24.09082031 1.81298828 C-16.08775733 0.14729322 -8.1512163 -0.02368705 0 0 Z M-73.5 52.375 C-96.17633489 76.34612561 -101.48492224 105.39369541 -101.9296875 137.36914062 C-102.16837493 147.1801886 -103.18961646 155.63589935 -108.75 163.9375 C-109.36230469 164.85789063 -109.97460938 165.77828125 -110.60546875 166.7265625 C-112.3489405 169.16382816 -114.17122329 171.48929092 -116.0625 173.8125 C-127.24918005 187.91525845 -130.1049817 203.84366145 -128.5 221.375 C-127.62969515 225.96047718 -126.30471978 230.07833272 -124.5 234.375 C-124.17257813 235.22964844 -123.84515625 236.08429688 -123.5078125 236.96484375 C-117.7497741 250.26717335 -104.81346306 261.75348386 -91.57548809 267.23180294 C-81.28362558 271.05741586 -71.2138855 271.8177815 -60.32495117 271.77905273 C-58.85147082 271.78477133 -57.37799489 271.79174128 -55.90452576 271.79985046 C-51.94147263 271.81763505 -47.97864269 271.81664125 -44.01556182 271.81090808 C-40.68854731 271.80779402 -37.36157431 271.81393326 -34.03456575 271.81994683 C-26.17527032 271.8339429 -18.3160837 271.83247263 -10.45678711 271.82104492 C-2.39114795 271.8095752 5.67415824 271.82363129 13.73975354 271.8504414 C20.703289 271.87270817 27.66672078 271.87921103 34.63028926 271.87336498 C38.77223645 271.87001949 42.9139705 271.87224761 47.05588722 271.88961601 C50.95578372 271.90525903 54.85519318 271.90094109 58.75507164 271.88231087 C60.17224927 271.87867202 61.58946442 271.88159282 63.00660706 271.89219666 C81.52245978 272.01997983 97.57541959 267.62646016 111.21875 254.65234375 C112.34796875 253.52505859 112.34796875 253.52505859 113.5 252.375 C114.47453125 251.41787109 114.47453125 251.41787109 115.46875 250.44140625 C126.44908806 238.85907597 130.00297599 224.35472209 129.92407227 208.86376953 C129.71947149 201.5325863 128.35556677 195.15815695 125.5 188.375 C125.18417969 187.56675781 124.86835938 186.75851563 124.54296875 185.92578125 C121.65628593 179.38479584 117.30496585 173.89816809 112.86523438 168.34643555 C106.53041097 160.27278018 103.48289939 152.4558001 103.25390625 142.17578125 C103.22264648 140.97526123 103.19138672 139.77474121 103.15917969 138.5378418 C103.12727539 137.267229 103.09537109 135.99661621 103.0625 134.6875 C101.95445187 99.36301275 94.42205378 71.00491365 67.82421875 45.84375 C53.00241234 32.8470916 34.19238545 23.79068082 14.5 21.375 C13.42234375 21.24222656 12.3446875 21.10945313 11.234375 20.97265625 C-20.9842648 17.92216801 -50.6851657 29.66846396 -73.5 52.375 Z M-102.3125 39.125 C-103.02100098 39.30691895 -103.72950195 39.48883789 -104.45947266 39.67626953 C-109.75202603 41.08219879 -114.66534862 42.77032014 -119.5 45.375 C-120.29535156 45.79394531 -121.09070313 46.21289062 -121.91015625 46.64453125 C-139.89668688 56.73589233 -151.35408836 72.5887458 -157.5546875 91.9296875 C-158.94188733 96.98551498 -159.62206046 101.79987336 -159.69287109 107.03808594 C-159.70893402 108.12651794 -159.72499695 109.21494995 -159.74154663 110.33636475 C-159.78640828 115.29226746 -159.82704332 120.24804301 -159.85009766 125.20410156 C-159.86665431 127.81096323 -159.89394005 130.41777955 -159.93212891 133.02441406 C-159.9871193 136.80297146 -160.00880516 140.58047042 -160.0234375 144.359375 C-160.04610687 145.51387146 -160.06877625 146.66836792 -160.09213257 147.85784912 C-160.07057617 156.18562826 -158.4821697 163.04419557 -152.7149353 169.31634521 C-149.25141155 172.5833039 -146.07543386 173.98499478 -141.5 175.375 C-140.95472656 174.50359375 -140.40945312 173.6321875 -139.84765625 172.734375 C-135.27773448 165.4962811 -130.51313151 158.55330588 -125.25 151.80078125 C-122.55138134 148.06006208 -122.35767626 145.11960425 -122.25390625 140.625 C-122.22264648 139.46863037 -122.19138672 138.31226074 -122.15917969 137.12084961 C-122.12727539 135.88471924 -122.09537109 134.64858887 -122.0625 133.375 C-120.93856929 98.59730941 -114.45619512 70.86905538 -92.63671875 43.125 C-90.45326167 40.38341799 -90.45326167 40.38341799 -88.5 37.375 C-93.33692148 37.164372 -97.65720954 37.91938494 -102.3125 39.125 Z M89.5 37.375 C89.8403125 37.82488281 90.180625 38.27476563 90.53125 38.73828125 C92.19435823 40.94543818 93.8469001 43.1603375 95.5 45.375 C96.13808594 46.21933594 96.77617187 47.06367187 97.43359375 47.93359375 C117.72790942 75.19048166 122.43961316 103.22174465 122.9296875 136.52929688 C122.97609375 138.30723633 122.97609375 138.30723633 123.0234375 140.12109375 C123.0531665 141.70942017 123.0531665 141.70942017 123.08349609 143.32983398 C123.92594971 149.48922669 127.4941451 153.8661392 131.3125 158.5625 C135.75858806 164.16359558 139.33090965 169.94664192 142.5 176.375 C144.39666526 176.28727545 146.29238993 176.17908699 148.1875 176.0625 C149.77111328 175.97548828 149.77111328 175.97548828 151.38671875 175.88671875 C155.05047039 175.28452118 157.84737457 174.02762543 160.5 171.375 C160.61535237 169.28221259 160.65970831 167.18549232 160.67700195 165.08959961 C160.68357315 164.43240433 160.69014435 163.77520905 160.69691467 163.09809875 C160.71672559 160.90784592 160.72834029 158.71766262 160.73828125 156.52734375 C160.74235678 155.77595186 160.7464323 155.02455997 160.75063133 154.25039864 C160.7715458 150.25734861 160.78581234 146.26433328 160.79516602 142.27124023 C160.80611642 138.18653741 160.84036501 134.10239679 160.88033772 130.01788998 C160.90679799 126.84753068 160.91488451 123.67729778 160.91844749 120.50683784 C160.92325468 119.00446427 160.93469595 117.50209401 160.95348549 115.99983025 C161.19543842 95.33523698 155.60553186 76.97822347 141.5 61.375 C140.87351562 60.66730469 140.24703125 59.95960937 139.6015625 59.23046875 C128.15749413 47.01567741 111.92697204 39.66713563 95.5 37.375 C93.50042499 37.33377165 91.49926332 37.32072136 89.5 37.375 Z M-182.5 292.375 C-182.5 358.375 -182.5 424.375 -182.5 492.375 C-61.72 492.375 59.06 492.375 183.5 492.375 C183.5 426.375 183.5 360.375 183.5 292.375 C62.72 292.375 -58.06 292.375 -182.5 292.375 Z " fill="#FFFFFF" transform="translate(255.5,-0.375)"/>
<path d="M0 0 C2.65750675 1.4897107 2.65750675 1.4897107 5.5625 0.5625 C6.59375 0.10875 7.625 -0.345 8.6875 -0.8125 C20.56739369 -5.47541685 30.4133235 -6.04829424 42.6875 -1.8125 C52.1414714 2.44383345 59.69090702 9.63871217 63.9453125 19.1640625 C67.81008255 29.70064611 68.14938743 41.27393502 63.61013794 51.6502533 C59.61544912 59.42414662 54.38492538 65.17972115 48.1796875 71.25390625 C47.16556176 72.26376929 46.15240621 73.27460745 45.14016724 74.28636169 C43.03477396 76.38564222 40.92148 78.47647827 38.80126953 80.56079102 C36.08799532 83.22847517 33.3905303 85.91148378 30.69811821 88.60020542 C28.61423622 90.67965815 26.52496929 92.75362515 24.43375015 94.82569695 C23.43678581 95.81381005 22.44086933 96.80298161 21.44604111 97.79324532 C20.05880016 99.17142563 18.66407853 100.54206369 17.26904297 101.91235352 C16.08373489 103.08170189 16.08373489 103.08170189 14.8744812 104.27467346 C11.30042004 107.40069898 8.54129261 108.48884279 3.8125 108.5625 C2.99007812 108.59085937 2.16765625 108.61921875 1.3203125 108.6484375 C-6.28960186 107.31613795 -12.04747583 99.82701707 -17.27734375 94.6640625 C-17.74853701 94.19977215 -18.21973026 93.7354818 -18.7052021 93.25712204 C-21.20229144 90.79574126 -23.69326997 88.32836127 -26.17944336 85.85595703 C-28.71691369 83.33494608 -31.27460936 80.83558017 -33.83779049 78.34075356 C-35.83261632 76.3912476 -37.81115559 74.42577866 -39.78598213 72.45603561 C-41.16771321 71.0858009 -42.56601684 69.73234048 -43.96482849 68.37954712 C-53.04873667 59.23311147 -59.29387837 48.68484504 -59.5625 35.5 C-59.40049684 24.69438956 -55.59120122 14.84744075 -48.203125 6.92578125 C-34.93113292 -5.45378378 -16.31791257 -8.92866914 0 0 Z M-33.171875 21.88671875 C-36.78489423 26.12771514 -38.06850842 30.00428918 -38.59765625 35.5 C-37.64685012 44.46102215 -32.92868624 49.2564257 -26.70703125 55.28125 C-25.86782639 56.11338013 -25.02862152 56.94551025 -24.16398621 57.80285645 C-21.49588445 60.4430974 -18.81088505 63.06536412 -16.125 65.6875 C-14.30679699 67.48060983 -12.48972658 69.27486888 -10.67382812 71.0703125 C-6.23308057 75.45610062 -1.77834988 79.82728296 2.6875 84.1875 C5.81015731 82.79717895 7.96612867 81.17363064 10.39868164 78.78271484 C11.10944351 78.08794037 11.82020538 77.39316589 12.55250549 76.67733765 C13.30990524 75.9253006 14.06730499 75.17326355 14.84765625 74.3984375 C15.63393906 73.62118317 16.42022186 72.84392883 17.23033142 72.04312134 C18.89138876 70.3965657 20.54965325 68.74718853 22.20532227 67.09521484 C24.73189522 64.58051967 27.27650296 62.08509037 29.82226562 59.58984375 C31.43604543 57.98553055 33.04871263 56.38009725 34.66015625 54.7734375 C35.41958023 54.03354584 36.17900421 53.29365417 36.96144104 52.53134155 C42.07059917 47.37830037 45.18562429 42.91750668 45.97265625 35.5 C45.35218372 29.05579411 43.52191462 24.60550496 38.6875 20.1875 C33.43860903 16.5513408 28.40512281 15.49900343 22.109375 16.4375 C17.91996479 17.73486574 14.96194504 20.36191147 11.6875 23.1875 C7.84686361 25.9308117 5.42916011 26.86488002 0.6875 26.1875 C-2.05700914 24.61086709 -4.48248213 22.89250283 -6.89453125 20.84375 C-15.18102819 14.16797729 -25.31421109 14.70587043 -33.171875 21.88671875 Z " fill="#FFFFFF" transform="translate(252.3125,339.8125)"/>
<path d="M0 0 C4.92679036 4.04892589 8.73319148 8.33238694 10.7734375 14.453125 C11.55751457 23.69403335 11.54072019 31.76808083 5.7734375 39.453125 C0.95281857 44.78724464 -4.84940883 48.24978624 -11.2265625 51.453125 C-10.36227305 55.53885694 -9.79748007 57.91075331 -6.7265625 60.828125 C-2.60329975 63.50824579 -0.20736098 63.86819154 4.7734375 63.453125 C8.47733771 61.42646262 10.42706761 59.97267984 12.7734375 56.453125 C13.31962608 52.6818229 13.66390939 48.91122609 14.015625 45.1171875 C14.85004549 41.08272143 15.79658826 39.26664269 18.7734375 36.453125 C22.9101578 34.91388024 26.6778587 34.98692125 30.7109375 36.703125 C33.97036174 39.46869708 34.73749316 41.03809325 35.109375 45.33203125 C35.34543405 57.36717286 34.37490955 66.53698784 25.7578125 75.6328125 C17.2348487 83.45112182 9.31369448 85.97614854 -2.125 85.7734375 C-9.29322944 85.03314176 -15.99394288 82.50530946 -21.2265625 77.453125 C-23.37949144 78.52460584 -25.52556895 79.60694082 -27.6640625 80.70703125 C-28.9325 81.35478516 -28.9325 81.35478516 -30.2265625 82.015625 C-31.495 82.66724609 -31.495 82.66724609 -32.7890625 83.33203125 C-40.88221525 87.05436272 -50.63166007 86.3326268 -58.9140625 83.4921875 C-67.09917551 79.81441713 -73.66660126 73.16189213 -77.6015625 65.140625 C-79.42198587 60.18417818 -79.64783019 55.36687586 -79.7265625 50.140625 C-79.74509277 49.36356201 -79.76362305 48.58649902 -79.78271484 47.78588867 C-79.74025952 43.93535775 -79.46422313 41.85698928 -77.47265625 38.47265625 C-74.40898755 35.71801848 -72.40309728 35.53793471 -68.41015625 35.328125 C-65.15913825 35.51422979 -63.60156118 36.21783212 -61.2265625 38.453125 C-58.71159246 42.76450222 -58.09000813 46.115866 -57.7890625 51.078125 C-57.47082163 55.71807682 -56.83880266 58.25371229 -53.2265625 61.453125 C-49.73991799 63.97793654 -46.42905132 63.88786522 -42.2265625 63.453125 C-38.52266229 61.42646262 -36.57293239 59.97267984 -34.2265625 56.453125 C-34.05957018 53.32790667 -34.05957018 53.32790667 -34.2265625 50.453125 C-35.3815625 49.9375 -36.5365625 49.421875 -37.7265625 48.890625 C-45.1772373 45.10594594 -50.90157053 40.10751398 -54.37890625 32.3984375 C-56.41885414 25.31032364 -56.72621031 16.79635967 -53.6640625 9.953125 C-49.10980452 2.59254608 -43.47925691 -1.89959744 -35.12109375 -4.1015625 C-24.06211501 -5.80294384 -9.49911968 -6.59938841 0 0 Z M-34.2265625 19.453125 C-34.20007028 22.8165519 -34.20007028 22.8165519 -33.2265625 26.453125 C-29.51318081 29.73471812 -26.19121984 31.35383185 -21.2265625 31.453125 C-17.31630289 30.54445515 -14.17263621 29.34006911 -11.2265625 26.578125 C-9.97511369 23.91879629 -9.70577821 22.35463746 -10.2265625 19.453125 C-12.75267518 16.75903552 -14.25409868 16.45019928 -17.9765625 16.0546875 C-19.39322852 16.0467584 -20.81006255 16.05502989 -22.2265625 16.078125 C-22.938125 16.06652344 -23.6496875 16.05492187 -24.3828125 16.04296875 C-28.60858275 16.06662045 -31.17017775 16.44449626 -34.2265625 19.453125 Z " fill="#FFFFFF" transform="translate(278.2265625,172.546875)"/>
<path d="M0 0 C0.75990234 -0.02900391 1.51980469 -0.05800781 2.30273438 -0.08789062 C6.29027719 -0.13292803 8.21520488 0.0122862 11.66796875 2.20703125 C15.00708094 5.68823332 15.08064335 8.37522444 15.04296875 13.046875 C14.6875 15.3125 14.6875 15.3125 12.375 18.375 C9.6875 20.3125 9.6875 20.3125 6.6875 20.3125 C6.73970703 21.95798828 6.73970703 21.95798828 6.79296875 23.63671875 C6.82111865 25.09113045 6.84841752 26.5455588 6.875 28 C6.90013672 28.72123047 6.92527344 29.44246094 6.95117188 30.18554688 C7.01425276 34.79045127 6.53626777 37.65953463 3.6875 41.3125 C0.92866669 43.47482881 -0.82792103 44.25192763 -4.3125 44.6875 C-7.76251843 44.2562477 -9.57587663 43.44098485 -12.3125 41.3125 C-15.668825 36.29996839 -14.68442618 29.84201255 -14.68310547 24.04077148 C-14.6874795 21.88510159 -14.7238243 19.73147995 -14.76171875 17.57617188 C-14.7675876 16.19792363 -14.77155654 14.81966571 -14.7734375 13.44140625 C-14.78165527 12.19431885 -14.78987305 10.94723145 -14.79833984 9.66235352 C-14.22833352 5.73217423 -13.07780498 4.10518104 -10.3125 1.3125 C-7.07124994 -0.30812503 -3.55800138 0.04458648 0 0 Z " fill="#FFFFFF" transform="translate(315.3125,108.6875)"/>
<path d="M0 0 C0.75990234 -0.02900391 1.51980469 -0.05800781 2.30273438 -0.08789062 C6.29027719 -0.13292803 8.21520488 0.0122862 11.66796875 2.20703125 C16.20587093 6.93803565 14.91104042 13.25171572 14.92773438 19.43334961 C14.9374169 21.60634983 14.96842826 23.77839463 15 25.95117188 C15.00653269 27.33853606 15.01178212 28.725907 15.015625 30.11328125 C15.02964355 32.00300659 15.02964355 32.00300659 15.04394531 33.9309082 C14.66125832 37.56145451 13.85908638 39.41561438 11.6875 42.3125 C8.04039121 44.83857125 5.04534838 44.44417642 0.8125 43.859375 C-2.17029164 43.0917448 -3.55431038 41.80326863 -5.3125 39.3125 C-6.56683458 35.54949626 -6.41945422 32.04039091 -6.375 28.125 C-6.37048828 27.37541016 -6.36597656 26.62582031 -6.36132812 25.85351562 C-6.34956354 24.00647617 -6.33162865 22.15947787 -6.3125 20.3125 C-7.10011719 20.1784375 -7.88773438 20.044375 -8.69921875 19.90625 C-11.3125 19.3125 -11.3125 19.3125 -13.125 17.8125 C-14.93281764 14.00656813 -14.99784599 10.44668385 -14.3125 6.3125 C-10.42170055 0.08722089 -6.90516682 0.08653091 0 0 Z " fill="#FFFFFF" transform="translate(196.3125,108.6875)"/>
</svg>
